<svg width="126" height="112" viewBox="0 0 126 112" fill="none" xmlns="http://www.w3.org/2000/svg">
<g filter="url(#filter0_d_524_7238)">
<path d="M51.0103 76.6783C30.974 69.5956 16.9123 58.1272 19.6028 51.0628C22.2933 43.9985 40.717 44.0134 60.7533 51.0961C80.7897 58.1787 94.8513 69.6471 92.1609 76.7115C89.4704 83.7758 71.0467 83.7609 51.0103 76.6783Z" fill="white" fill-opacity="0.5"/>
<path d="M31.1223 55.3029V15.6305H15V10H53.8952V15.6305H37.7728V55.3029H31.1223Z" fill="white"/>
<path d="M38.7557 64.1591V18.8562H58.5728C63.5886 18.8562 67.9999 19.8054 71.8065 21.7038C75.658 23.6022 78.6361 26.2557 80.741 29.6642C82.8906 33.0727 83.9655 37.0205 83.9655 41.5077C83.9655 45.9948 82.8906 49.9426 80.741 53.3511C78.6361 56.7597 75.658 59.4131 71.8065 61.3115C67.9999 63.2099 63.5886 64.1591 58.5728 64.1591H38.7557ZM45.4734 58.5286H58.1697C62.0659 58.5286 65.4248 57.8167 68.2462 56.3929C71.1124 54.9691 73.3292 52.9844 74.8966 50.4388C76.4641 47.8501 77.2478 44.873 77.2478 41.5077C77.2478 38.0992 76.4641 35.1221 74.8966 32.5765C73.3292 30.0309 71.1124 28.0462 68.2462 26.6224C65.4248 25.1986 62.0659 24.4867 58.1697 24.4867H45.4734V58.5286Z" fill="#CACACA"/>
<path d="M46.5517 27.3718V71.6528H52.5759V51.8475H79.1015V71.6528H85.1257V27.3718H79.1015V47.0907H52.5759V27.3718H46.5517Z" fill="#FB2022"/>
<path fill-rule="evenodd" clip-rule="evenodd" d="M101 32.8267C101 35.7508 98.3369 38.1212 95.0519 38.1212C91.7668 38.1212 89.1038 35.7508 89.1038 32.8267C89.1038 29.9027 91.7668 27.5322 95.0519 27.5322C98.3369 27.5322 101 29.9027 101 32.8267ZM95.218 29.2971L94.2467 31.9577H91.1038L93.6465 33.6021L92.6753 36.2628L95.218 34.6184L97.7607 36.2628L96.7894 33.6021L99.3321 31.9577H96.1892L95.218 29.2971Z" fill="#FB2022"/>
</g>
<defs>
<filter id="filter0_d_524_7238" x="0" y="0" width="126" height="112" filterUnits="userSpaceOnUse" color-interpolation-filters="sRGB">
<feFlood flood-opacity="0" result="BackgroundImageFix"/>
<feColorMatrix in="SourceAlpha" type="matrix" values="0 0 0 0 0 0 0 0 0 0 0 0 0 0 0 0 0 0 127 0" result="hardAlpha"/>
<feOffset dx="5" dy="10"/>
<feGaussianBlur stdDeviation="10"/>
<feColorMatrix type="matrix" values="0 0 0 0 0 0 0 0 0 0 0 0 0 0 0 0 0 0 0.2 0"/>
<feBlend mode="normal" in2="BackgroundImageFix" result="effect1_dropShadow_524_7238"/>
<feBlend mode="normal" in="SourceGraphic" in2="effect1_dropShadow_524_7238" result="shape"/>
</filter>
</defs>
</svg>
